<?xml version="1.0" standalone="no"?>
<svg version="1.0" xmlns="http://www.w3.org/2000/svg"
 width="250" height="250" viewBox="0 0 1000.000000 1000.000000"
 preserveAspectRatio="xMidYMid meet">

<g transform="translate(0.000000,1000.000000) scale(0.100000,-0.100000)"
fill="#000000" stroke="none">
<path d="M6865 9650 c-1655 -98 -3123 -729 -3682 -1582 -315 -481 -379 -1099
-169 -1652 70 -184 207 -415 367 -616 101 -127 464 -494 609 -614 190 -158
363 -263 495 -301 83 -25 193 -17 261 18 136 69 198 227 145 368 -31 79 -91
150 -234 272 -410 353 -654 722 -718 1087 -37 213 2 474 101 670 112 222 329
439 620 616 532 325 1191 528 1955 603 128 13 389 30 393 26 2 -1 -28 -31 -65
-66 -622 -578 -1035 -1262 -1451 -2404 -97 -268 -284 -837 -378 -1152 l-69
-232 -45 -7 c-878 -123 -1673 -372 -2260 -708 -345 -198 -630 -414 -886 -670
-350 -351 -547 -683 -626 -1051 -21 -99 -16 -353 9 -461 137 -590 683 -964
1320 -905 827 78 1905 741 2586 1591 257 320 534 814 722 1285 l52 130 39 7
c21 4 89 7 149 7 275 2 455 30 549 85 128 75 160 237 81 404 -72 151 -259 293
-447 339 -81 19 -84 -19 28 313 153 455 460 1267 626 1655 413 968 786 1450
1414 1828 191 115 262 166 327 236 63 67 97 142 104 228 17 212 -91 385 -309
492 -159 79 -361 122 -703 151 -175 15 -724 21 -910 10z m965 -134 c303 -34
476 -74 548 -126 78 -56 108 -159 77 -265 -24 -83 -110 -166 -285 -275 -272
-169 -443 -304 -631 -496 -415 -427 -723 -991 -1176 -2159 -232 -599 -511
-1373 -546 -1516 l-7 -26 163 -6 c299 -12 431 -49 468 -131 47 -104 3 -205
-105 -243 -44 -16 -81 -18 -281 -15 -126 2 -266 0 -310 -3 l-80 -6 -44 -117
c-161 -429 -355 -825 -548 -1121 -397 -609 -1017 -1137 -1755 -1496 -561 -272
-1036 -368 -1382 -279 -34 8 -101 35 -151 58 -173 82 -279 186 -360 351 -63
126 -76 186 -82 355 -4 122 -2 161 17 250 129 628 781 1310 1665 1740 286 139
501 223 817 319 403 122 922 235 1224 266 l61 7 51 151 c28 84 112 343 186
577 144 454 207 641 281 839 337 906 713 1561 1170 2040 44 46 228 212 409
370 320 277 328 285 300 293 -55 16 -438 21 -664 9 -837 -44 -1544 -208 -2105
-489 -637 -318 -993 -676 -1091 -1097 -28 -118 -26 -365 4 -498 63 -285 219
-598 425 -852 76 -93 233 -247 364 -357 111 -94 148 -149 148 -225 0 -86 -68
-153 -155 -153 -163 0 -524 234 -825 535 -343 343 -544 733 -596 1158 -17 140
-7 404 20 540 109 542 483 994 1144 1382 137 80 435 222 602 288 595 234 1293
387 1995 436 200 15 870 6 1040 -13z"/>
<path d="M4860 4174 c-1098 -148 -2009 -614 -2414 -1237 -216 -330 -266 -720
-122 -933 89 -132 229 -194 435 -194 525 0 1161 397 1612 1005 274 369 530
915 633 1348 8 32 11 32 -144 11z m-120 -368 c0 -2 -18 -55 -39 -117 -106
-306 -281 -620 -502 -899 -102 -129 -344 -373 -459 -462 -317 -245 -619 -375
-915 -395 -77 -5 -103 -2 -162 16 -118 35 -118 36 -118 193 1 161 22 252 94
404 129 271 343 498 671 713 321 211 736 384 1170 490 279 68 260 63 260 57z"/>
</g>
</svg>
