<?xml version="1.0" standalone="no"?>
<svg version="1.0" xmlns="http://www.w3.org/2000/svg"
 width="550" height="100" viewBox="0 0 2877.000000 497.000000"
 preserveAspectRatio="xMidYMid meet">

<g transform="translate(0.000000,497.000000) scale(0.100000,-0.100000)"
fill="#000000" stroke="none">
<path d="M15882 4759 c-99 -50 -219 -230 -302 -450 -32 -86 -32 -86 -214 -270
-281 -286 -568 -614 -770 -881 -49 -65 -94 -118 -100 -118 -29 0 -376 -54
-491 -76 -431 -84 -767 -199 -1065 -365 -367 -205 -575 -423 -636 -669 -22
-89 -15 -233 16 -315 72 -189 232 -336 438 -402 105 -34 272 -42 397 -19 475
89 909 440 1462 1183 129 173 138 182 176 188 61 11 387 -5 387 -18 0 -6 -7
-94 -16 -196 -21 -240 -15 -441 15 -524 42 -117 128 -201 240 -234 115 -33
213 6 258 103 33 74 43 148 43 354 0 164 12 367 26 453 l6 37 97 0 c161 0 259
45 308 140 56 109 37 216 -55 310 -61 62 -124 90 -204 90 -26 0 -38 4 -38 14
0 8 16 92 36 188 94 457 140 601 269 838 41 74 84 164 95 200 43 129 10 242
-104 355 -99 99 -190 127 -274 84z m125 -50 c65 -24 113 -99 113 -177 0 -70
-24 -143 -85 -257 -142 -265 -261 -669 -360 -1217 -4 -25 -1 -28 23 -28 80 0
257 -22 292 -36 47 -19 60 -38 60 -89 0 -61 -45 -130 -105 -163 -24 -14 -57
-17 -176 -16 l-146 2 -17 -142 c-22 -196 -34 -343 -42 -544 -8 -192 -16 -221
-73 -259 -43 -29 -147 -32 -192 -6 -91 54 -104 264 -49 768 12 102 18 190 15
195 -7 11 -446 14 -544 4 l-62 -7 -135 -178 c-453 -597 -767 -895 -1143 -1083
-384 -193 -769 -177 -933 39 -63 83 -83 152 -83 285 0 127 15 183 77 289 55
93 226 256 367 349 406 268 888 431 1537 518 l202 27 49 71 c70 100 309 396
448 556 65 74 216 233 335 352 l217 217 43 98 c108 248 188 378 253 418 46 27
71 30 114 14z"/>
<path d="M15300 3513 c-141 -144 -227 -242 -379 -436 l-53 -67 179 5 c241 8
283 13 283 32 0 9 29 149 65 311 36 163 64 299 63 304 -2 5 -73 -62 -158 -149z
m-10 -322 c-11 -50 -20 -93 -20 -96 0 -3 -29 -5 -65 -5 -56 0 -65 2 -58 15 12
22 157 185 161 181 1 -2 -6 -44 -18 -95z"/>
<path d="M14205 2719 c-363 -38 -672 -117 -911 -233 -266 -131 -460 -338 -472
-507 -6 -84 13 -145 63 -195 55 -54 115 -74 226 -74 204 0 444 116 659 317
228 215 418 431 559 641 l42 62 -43 -1 c-24 -1 -79 -5 -123 -10z m-94 -230
c-132 -181 -339 -394 -496 -512 -191 -143 -420 -230 -560 -212 -80 10 -99 31
-92 101 21 204 322 445 718 575 135 44 317 81 432 87 l29 2 -31 -41z"/>
<path d="M10227 4526 c-60 -22 -107 -65 -133 -120 -36 -77 -29 -144 22 -213
l24 -32 -49 -58 c-26 -32 -58 -66 -69 -77 -24 -21 -37 -73 -28 -110 7 -30 90
-122 127 -141 85 -44 198 3 335 140 120 120 159 195 159 305 0 59 -5 85 -25
125 -29 60 -110 144 -165 170 -51 24 -148 30 -198 11z m128 -57 c110 -30 146
-139 86 -266 -74 -155 -306 -327 -364 -268 -27 26 -21 41 41 108 31 34 68 77
81 95 l23 33 -36 39 c-80 89 -46 214 70 255 48 17 50 17 99 4z"/>
<path d="M2880 4493 c-496 -48 -844 -142 -1195 -321 -300 -153 -503 -338 -610
-555 -71 -144 -88 -224 -88 -402 0 -134 3 -160 27 -240 63 -210 169 -368 393
-585 144 -141 248 -218 336 -252 165 -63 298 70 215 213 -14 24 -62 74 -106
111 -144 121 -263 279 -318 423 -32 84 -43 228 -24 318 41 199 211 371 515
517 249 121 573 200 880 217 l110 5 -96 -98 c-127 -130 -186 -204 -282 -349
-185 -282 -374 -741 -552 -1336 l-37 -127 -62 -6 c-189 -22 -536 -109 -746
-189 -403 -154 -755 -414 -949 -700 -47 -69 -106 -201 -125 -278 -79 -321 123
-635 454 -705 459 -97 1254 382 1614 973 64 106 182 341 221 439 l27 71 67 7
c36 3 93 6 127 6 77 0 157 24 195 58 24 21 32 39 36 74 7 63 -12 113 -66 171
-45 48 -146 107 -183 107 -25 0 -23 19 18 139 167 487 360 958 478 1169 152
270 293 419 545 575 169 105 223 178 205 281 -33 203 -250 279 -783 274 -113
0 -222 -3 -241 -5z m635 -77 c179 -28 225 -58 225 -147 0 -65 -25 -92 -182
-195 -313 -206 -497 -448 -710 -934 -111 -253 -418 -1077 -418 -1121 0 -5 30
-9 68 -9 86 0 191 -17 219 -36 45 -29 42 -101 -4 -131 -22 -15 -57 -19 -191
-23 l-164 -5 -57 -140 c-103 -253 -214 -454 -336 -610 -81 -104 -265 -281
-385 -371 -347 -261 -757 -419 -1001 -387 -199 26 -330 148 -359 335 -18 119
8 239 85 385 157 297 500 569 937 744 188 75 507 158 745 194 53 7 99 18 104
22 4 4 48 136 98 293 181 568 286 824 457 1111 134 225 233 341 468 547 208
181 208 169 0 171 -326 2 -715 -57 -982 -150 -324 -113 -618 -321 -714 -505
-94 -179 -87 -365 21 -591 63 -131 115 -199 257 -339 116 -114 134 -135 134
-163 0 -41 -39 -81 -77 -81 -103 0 -379 211 -514 393 -123 165 -178 314 -186
508 -9 198 29 342 127 493 257 394 901 683 1680 756 140 13 536 4 655 -14z"/>
<path d="M1915 1774 c-318 -48 -618 -158 -846 -309 -105 -70 -236 -192 -288
-268 -171 -250 -158 -516 28 -582 101 -35 269 -8 427 70 265 130 485 367 648
696 58 116 146 354 146 393 0 18 4 18 -115 0z m-25 -194 c0 -21 -52 -146 -101
-241 -131 -256 -336 -471 -559 -588 -152 -79 -312 -107 -387 -68 -31 17 -33
20 -33 75 0 316 354 635 863 781 183 52 217 59 217 41z"/>
<path d="M6474 3556 c-93 -43 -154 -144 -141 -235 8 -60 46 -127 99 -177 124
-116 267 -125 369 -24 199 199 -68 557 -327 436z m202 -57 c97 -58 76 -212
-36 -269 -53 -27 -143 -27 -188 0 -72 44 -79 145 -16 219 41 47 64 62 114 71
46 9 88 2 126 -21z"/>
<path d="M18314 3556 c-93 -43 -154 -144 -141 -235 8 -60 46 -127 99 -177 124
-116 267 -125 369 -24 199 199 -68 557 -327 436z m202 -57 c97 -58 76 -212
-36 -269 -53 -27 -143 -27 -188 0 -72 44 -79 145 -16 219 41 47 64 62 114 71
46 9 88 2 126 -21z"/>
<path d="M24214 3556 c-93 -43 -154 -144 -141 -235 8 -60 46 -127 99 -177 124
-116 267 -125 369 -24 199 199 -68 557 -327 436z m202 -57 c97 -58 76 -212
-36 -269 -53 -27 -143 -27 -188 0 -72 44 -79 145 -16 219 41 47 64 62 114 71
46 9 88 2 126 -21z"/>
<path d="M23255 3536 c-80 -37 -180 -203 -310 -511 -21 -49 -42 -94 -46 -99
-4 -5 -50 -20 -101 -32 -171 -43 -248 -101 -248 -186 0 -59 24 -103 96 -178
l66 -69 -36 -148 c-48 -198 -61 -298 -47 -363 51 -237 296 -407 502 -347 76
23 170 81 252 157 133 123 140 216 27 343 -79 89 -134 97 -236 33 -32 -19 -59
-35 -60 -33 -1 1 3 34 11 73 16 83 54 199 94 288 l28 63 130 6 c151 6 201 19
240 59 24 25 28 37 28 91 0 45 -6 75 -23 108 -25 52 -100 132 -144 155 l-28
15 54 103 c74 141 93 204 78 253 -16 51 -102 163 -152 198 -49 34 -128 43
-175 21z m153 -81 c44 -51 34 -92 -83 -318 -58 -113 -105 -209 -105 -215 0 -7
25 -9 73 -5 135 10 199 -26 199 -113 0 -39 -5 -53 -25 -70 -23 -19 -42 -23
-164 -29 -194 -9 -186 -6 -216 -73 -79 -176 -142 -405 -134 -485 11 -120 134
-142 267 -47 58 41 120 16 120 -49 0 -143 -242 -313 -424 -299 -96 8 -166 52
-209 133 -19 34 -22 56 -21 140 1 109 33 248 112 490 22 66 38 122 36 124 -1
2 -36 -4 -77 -13 -82 -19 -114 -13 -141 26 -58 82 29 158 224 196 l95 19 81
179 c144 320 219 438 281 446 43 5 86 -9 111 -37z"/>
<path d="M8425 2961 c-84 -39 -103 -79 -116 -246 -16 -196 -47 -297 -213 -695
-43 -103 -46 -154 -11 -228 30 -65 123 -164 179 -192 68 -33 133 -23 178 27
10 11 57 105 106 209 48 104 110 226 136 270 55 92 142 214 153 213 5 0 22
-21 38 -46 17 -26 42 -55 57 -66 38 -28 116 -34 163 -11 55 26 128 105 163
177 84 171 64 332 -59 458 -115 118 -272 139 -414 54 l-57 -35 -41 46 c-23 26
-59 55 -82 65 -51 24 -129 24 -180 0z m161 -62 c15 -17 19 -35 18 -93 -1 -61
-24 -205 -41 -255 -3 -9 20 21 51 66 77 111 173 205 242 239 65 32 151 36 202
10 48 -25 90 -83 102 -143 25 -117 -43 -274 -149 -343 -55 -37 -94 -38 -126
-5 -30 29 -30 32 -9 96 22 67 9 99 -39 99 -97 0 -257 -231 -412 -591 -43 -98
-88 -190 -101 -204 -45 -48 -140 -24 -185 47 -30 48 -20 110 42 253 117 273
176 474 186 640 6 114 23 159 67 186 44 27 127 26 152 -2z"/>
<path d="M16479 2965 c-69 -37 -150 -235 -269 -655 -86 -306 -99 -428 -54
-519 59 -117 189 -209 282 -198 57 6 90 41 122 130 36 97 173 364 238 462 56
84 146 185 156 174 3 -2 -15 -48 -39 -102 -65 -144 -88 -226 -83 -301 11 -175
196 -366 355 -366 186 0 453 226 453 383 0 53 -21 93 -80 155 -52 54 -83 72
-127 72 -16 0 -23 4 -20 13 122 274 143 341 133 427 -15 124 -110 255 -224
308 -136 63 -311 18 -485 -125 -29 -24 -54 -43 -58 -43 -3 0 -12 15 -21 33
-25 51 -95 124 -141 146 -50 24 -101 26 -138 6z m110 -59 c75 -39 78 -102 15
-303 -59 -190 -63 -203 -60 -203 2 0 36 44 76 98 140 186 296 329 426 389 48
22 74 27 141 28 75 0 85 -2 124 -30 64 -45 89 -95 89 -178 0 -82 -17 -135
-105 -326 -37 -80 -78 -178 -91 -219 -25 -75 -25 -75 -6 -101 10 -14 26 -27
34 -29 8 -1 52 22 97 53 46 30 94 55 107 55 34 0 66 -46 58 -84 -10 -52 -51
-112 -116 -170 -82 -75 -168 -117 -252 -123 -57 -5 -72 -2 -121 22 -38 18 -65
40 -83 68 -24 36 -27 49 -26 126 0 104 16 152 120 371 41 86 74 168 74 183 0
16 -10 38 -25 52 -56 57 -152 18 -275 -112 -106 -110 -165 -204 -290 -459
-132 -270 -156 -294 -238 -244 -48 30 -72 75 -72 140 0 133 109 550 212 813
71 183 111 222 187 183z"/>
<path d="M19558 2961 c-76 -25 -138 -61 -226 -133 -70 -57 -75 -59 -87 -40
-84 118 -148 171 -218 179 -55 7 -99 -15 -132 -65 -81 -123 -285 -839 -285
-1002 0 -86 18 -128 88 -202 72 -76 129 -108 192 -108 65 0 112 54 170 194 50
121 158 325 228 430 53 81 157 194 167 184 4 -4 -11 -72 -34 -150 -101 -353
-96 -421 44 -562 101 -104 198 -121 268 -49 14 16 54 89 87 163 104 231 210
415 286 500 69 76 76 68 29 -38 -77 -175 -93 -296 -55 -407 59 -170 240 -288
397 -256 201 40 416 262 389 404 -14 76 -114 179 -188 194 -16 3 -28 9 -28 13
0 4 15 41 34 82 126 276 120 426 -23 569 -79 79 -147 109 -245 109 -118 0
-224 -50 -356 -169 -39 -35 -73 -62 -74 -60 -2 2 -15 27 -29 54 -30 61 -96
129 -151 157 -58 30 -173 34 -248 9z m212 -63 c33 -17 51 -35 68 -68 21 -40
23 -55 19 -130 -4 -56 -16 -118 -36 -180 -17 -52 -29 -95 -28 -97 2 -1 27 30
57 70 82 107 246 273 324 328 91 64 164 91 246 92 70 0 98 -10 143 -52 48 -44
61 -79 60 -161 0 -88 -22 -152 -133 -394 -94 -207 -103 -276 -33 -276 31 0 56
13 121 67 30 23 64 43 77 43 37 0 75 -37 75 -74 0 -71 -131 -218 -246 -276
-61 -31 -76 -35 -148 -35 -70 0 -87 4 -128 27 -70 42 -92 94 -86 206 5 97 30
169 132 390 59 126 67 173 39 204 -46 51 -160 3 -278 -117 -111 -112 -217
-288 -335 -555 -60 -137 -94 -175 -147 -167 -46 8 -79 31 -103 70 -41 66 -24
179 76 532 53 183 58 230 29 251 -50 37 -139 6 -232 -80 -122 -113 -229 -282
-348 -550 -89 -202 -113 -232 -177 -223 -72 10 -118 62 -118 135 0 100 87 464
175 728 61 185 95 256 138 288 26 19 30 19 69 6 28 -10 51 -27 66 -50 29 -43
26 -81 -17 -221 -38 -121 -63 -220 -58 -225 2 -3 31 33 65 78 248 342 505 500
672 416z"/>
<path d="M26119 2965 c-69 -37 -150 -235 -269 -655 -86 -306 -99 -428 -54
-519 59 -117 189 -209 282 -198 57 6 90 41 122 130 36 97 173 364 238 462 56
84 146 185 156 174 3 -2 -15 -48 -39 -102 -65 -144 -88 -226 -83 -301 11 -175
196 -366 355 -366 186 0 453 226 453 383 0 53 -21 93 -80 155 -52 54 -83 72
-127 72 -16 0 -23 4 -20 13 122 274 143 341 133 427 -15 124 -110 255 -224
308 -136 63 -311 18 -485 -125 -29 -24 -54 -43 -58 -43 -3 0 -12 15 -21 33
-25 51 -95 124 -141 146 -50 24 -101 26 -138 6z m110 -59 c75 -39 78 -102 15
-303 -59 -190 -63 -203 -60 -203 2 0 36 44 76 98 140 186 296 329 426 389 48
22 74 27 141 28 75 0 85 -2 124 -30 64 -45 89 -95 89 -178 0 -82 -17 -135
-105 -326 -37 -80 -78 -178 -91 -219 -25 -75 -25 -75 -6 -101 10 -14 26 -27
34 -29 8 -1 52 22 97 53 46 30 94 55 107 55 34 0 66 -46 58 -84 -10 -52 -51
-112 -116 -170 -82 -75 -168 -117 -252 -123 -57 -5 -72 -2 -121 22 -38 18 -65
40 -83 68 -24 36 -27 49 -26 126 0 104 16 152 120 371 41 86 74 168 74 183 0
16 -10 38 -25 52 -56 57 -152 18 -275 -112 -106 -110 -165 -204 -290 -459
-132 -270 -156 -294 -238 -244 -48 30 -72 75 -72 140 0 133 109 550 212 813
71 183 111 222 187 183z"/>
<path d="M7571 2959 c-194 -38 -400 -155 -562 -319 -227 -231 -317 -490 -244
-707 56 -167 176 -285 339 -335 219 -67 592 69 716 262 61 95 51 181 -30 260
l-47 46 77 61 c95 75 174 167 214 253 27 57 31 76 31 150 0 73 -4 92 -27 135
-26 50 -100 127 -148 157 -74 44 -204 60 -319 37z m264 -77 c64 -36 89 -82 89
-161 -1 -136 -109 -280 -308 -409 -83 -54 -251 -138 -365 -183 l-84 -33 36
-32 c43 -39 104 -58 161 -49 22 4 95 32 160 61 127 57 159 64 188 37 40 -36 8
-103 -92 -196 -131 -121 -294 -182 -471 -175 -83 3 -104 8 -161 36 -316 156
-215 640 198 943 66 49 197 120 266 145 134 48 312 56 383 16z"/>
<path d="M7533 2685 c-71 -21 -133 -64 -219 -149 -78 -77 -135 -170 -159 -255
-7 -22 -5 -23 21 -17 103 26 303 147 392 239 114 116 94 222 -35 182z"/>
<path d="M10908 2955 c-99 -20 -188 -66 -241 -125 -58 -65 -82 -132 -81 -230
1 -93 22 -155 108 -309 74 -133 89 -179 75 -221 -12 -33 -57 -55 -95 -46 -14
4 -61 40 -104 81 -82 78 -108 91 -170 82 -86 -11 -148 -97 -137 -189 18 -145
147 -295 331 -384 407 -196 818 97 675 481 -12 33 -48 120 -80 193 -33 73 -59
147 -59 165 0 75 47 97 210 97 80 0 113 4 140 18 64 32 77 101 36 187 -51 108
-137 174 -263 200 -84 18 -255 18 -345 0z m379 -59 c86 -27 130 -106 89 -162
-13 -17 -31 -20 -153 -24 -155 -7 -202 -21 -234 -74 -37 -61 -28 -102 75 -328
74 -165 90 -232 75 -315 -14 -74 -46 -129 -109 -186 -63 -57 -141 -87 -240
-94 -196 -14 -367 74 -446 229 -35 69 -32 112 10 154 26 26 42 34 71 34 31 0
46 -10 110 -70 82 -78 105 -90 172 -90 40 0 50 5 85 40 39 39 40 42 36 98 -4
59 -16 86 -115 272 -59 110 -78 180 -70 259 12 136 109 228 280 267 81 18 292
12 364 -10z"/>
<path d="M27958 2955 c-99 -20 -188 -66 -241 -125 -58 -65 -82 -132 -81 -230
1 -93 22 -155 108 -309 74 -133 89 -179 75 -221 -12 -33 -57 -55 -95 -46 -14
4 -61 40 -104 81 -82 78 -108 91 -170 82 -86 -11 -148 -97 -137 -189 18 -145
147 -295 331 -384 407 -196 818 97 675 481 -12 33 -48 120 -80 193 -33 73 -59
147 -59 165 0 75 47 97 210 97 80 0 113 4 140 18 64 32 77 101 36 187 -51 108
-137 174 -263 200 -84 18 -255 18 -345 0z m379 -59 c86 -27 130 -106 89 -162
-13 -17 -31 -20 -153 -24 -155 -7 -202 -21 -234 -74 -37 -61 -28 -102 75 -328
74 -165 90 -232 75 -315 -14 -74 -46 -129 -109 -186 -63 -57 -141 -87 -240
-94 -196 -14 -367 74 -446 229 -35 69 -32 112 10 154 26 26 42 34 71 34 31 0
46 -10 110 -70 82 -78 105 -90 172 -90 40 0 50 5 85 40 39 39 40 42 36 98 -4
59 -16 86 -115 272 -59 110 -78 180 -70 259 12 136 109 228 280 267 81 18 292
12 364 -10z"/>
<path d="M3974 2939 c-200 -42 -393 -125 -539 -233 -238 -176 -392 -419 -412
-652 -19 -232 155 -446 378 -462 117 -8 226 33 370 139 l81 61 65 -67 c83 -86
161 -125 250 -125 156 0 350 127 418 272 43 92 31 154 -49 236 -50 53 -84 72
-130 72 l-35 0 34 71 c19 40 40 96 46 125 10 46 10 60 -6 101 -10 26 -38 68
-61 93 l-43 46 34 27 c44 35 60 83 45 135 -13 51 -92 139 -145 163 -53 25
-180 24 -301 -2z m271 -43 c41 -18 55 -57 34 -95 -18 -32 -73 -53 -222 -85
-196 -41 -338 -112 -467 -234 -91 -84 -134 -148 -162 -235 -25 -79 -18 -136
22 -180 26 -29 34 -32 87 -32 126 0 236 96 491 429 51 66 104 128 119 138 78
51 183 -17 170 -111 -2 -20 -32 -92 -65 -161 -55 -116 -92 -214 -92 -247 0 -8
11 -25 25 -39 23 -23 27 -24 57 -11 18 8 57 31 87 51 83 56 141 42 141 -35 0
-69 -130 -208 -250 -267 -46 -23 -68 -27 -136 -27 -72 0 -86 3 -129 30 -67 42
-90 89 -90 186 l0 77 -48 -42 c-99 -86 -224 -178 -280 -206 -113 -56 -241 -64
-333 -20 -138 67 -161 297 -52 514 126 249 377 456 677 556 163 55 346 75 416
46z m-265 -401 c-102 -148 -264 -325 -334 -366 -95 -54 -106 -37 -50 78 44 89
148 204 227 251 52 32 162 81 180 82 4 0 -6 -20 -23 -45z"/>
<path d="M4680 2942 c-21 -11 -43 -34 -54 -57 -23 -46 -24 -42 67 -395 31
-118 74 -305 97 -415 23 -110 50 -218 59 -241 19 -42 63 -82 169 -153 123 -83
196 -100 259 -62 33 21 63 75 144 264 79 186 208 394 376 609 125 160 144 217
103 304 -42 86 -168 173 -233 160 -94 -19 -187 -117 -370 -394 -67 -100 -123
-179 -124 -175 -1 5 -13 58 -27 118 -13 61 -39 151 -57 200 -28 78 -41 98 -93
151 -44 44 -77 67 -119 82 -71 27 -150 28 -197 4z m173 -56 c18 -7 42 -24 54
-37 41 -45 45 -60 159 -561 l38 -166 71 131 c202 374 415 647 502 647 38 0 79
-26 93 -60 19 -46 -7 -103 -110 -234 -173 -221 -304 -436 -386 -631 -79 -186
-108 -235 -144 -235 -24 0 -151 64 -188 95 -18 15 -39 39 -46 54 -8 14 -37
131 -65 259 -65 294 -117 509 -142 591 -25 81 -24 109 3 138 17 18 32 23 75
23 30 0 68 -6 86 -14z"/>
<path d="M21884 2939 c-200 -42 -393 -125 -539 -233 -238 -176 -392 -419 -412
-652 -19 -232 155 -446 378 -462 117 -8 226 33 370 139 l81 61 65 -67 c83 -86
161 -125 250 -125 156 0 350 127 418 272 43 92 31 154 -49 236 -50 53 -84 72
-130 72 l-35 0 34 71 c19 40 40 96 46 125 10 46 10 60 -6 101 -10 26 -38 68
-61 93 l-43 46 34 27 c44 35 60 83 45 135 -13 51 -92 139 -145 163 -53 25
-180 24 -301 -2z m271 -43 c41 -18 55 -57 34 -95 -18 -32 -73 -53 -222 -85
-196 -41 -338 -112 -467 -234 -91 -84 -134 -148 -162 -235 -25 -79 -18 -136
22 -180 26 -29 34 -32 87 -32 126 0 236 96 491 429 51 66 104 128 119 138 78
51 183 -17 170 -111 -2 -20 -32 -92 -65 -161 -55 -116 -92 -214 -92 -247 0 -8
11 -25 25 -39 23 -23 27 -24 57 -11 18 8 57 31 87 51 83 56 141 42 141 -35 0
-69 -130 -208 -250 -267 -46 -23 -68 -27 -136 -27 -72 0 -86 3 -129 30 -67 42
-90 89 -90 186 l0 77 -48 -42 c-99 -86 -224 -178 -280 -206 -113 -56 -241 -64
-333 -20 -138 67 -161 297 -52 514 126 249 377 456 677 556 163 55 346 75 416
46z m-265 -401 c-102 -148 -264 -325 -334 -366 -95 -54 -106 -37 -50 78 44 89
148 204 227 251 52 32 162 81 180 82 4 0 -6 -20 -23 -45z"/>
<path d="M25110 2940 c-225 -60 -421 -225 -530 -445 -63 -126 -81 -193 -87
-325 -9 -179 39 -312 156 -430 107 -108 235 -157 391 -148 164 10 303 80 434
218 205 218 255 522 123 741 l-33 55 20 27 c13 18 20 42 20 74 -1 90 -64 171
-174 222 -76 35 -212 40 -320 11z m287 -59 c47 -22 67 -52 59 -87 -10 -37 -46
-54 -145 -65 -158 -18 -251 -59 -339 -153 -92 -97 -134 -227 -113 -347 14 -85
50 -142 104 -168 123 -59 260 16 307 167 25 80 25 111 0 246 -17 95 -18 112
-6 141 31 73 129 85 192 24 105 -101 91 -405 -28 -607 -18 -32 -64 -89 -103
-127 -112 -113 -234 -165 -385 -165 -235 0 -375 135 -387 375 -8 140 29 279
108 412 74 122 228 259 355 314 135 58 301 76 381 40z m-186 -425 c6 -30 10
-90 7 -137 -7 -125 -50 -195 -134 -218 -70 -19 -89 4 -87 109 1 74 17 129 56
187 28 42 114 113 137 113 5 0 14 -24 21 -54z"/>
<path d="M6217 2920 c-19 -16 -50 -60 -70 -97 -67 -128 -196 -474 -237 -634
-52 -202 -4 -393 126 -508 95 -83 189 -101 312 -58 131 45 248 146 303 261 52
109 46 181 -24 272 -66 86 -137 110 -197 66 -16 -13 -30 -19 -30 -14 0 5 35
92 77 193 66 158 77 192 77 244 1 109 -74 228 -177 279 -70 35 -117 34 -160
-4z m171 -75 c50 -54 46 -96 -32 -279 -134 -316 -168 -483 -105 -516 32 -18
81 5 154 71 72 65 104 74 129 37 40 -56 -2 -157 -109 -263 -82 -82 -161 -125
-246 -132 -111 -11 -208 65 -225 174 -4 25 -4 88 -1 142 4 80 14 121 55 247
82 245 169 448 224 527 40 56 100 53 156 -8z"/>
<path d="M18057 2920 c-19 -16 -50 -60 -70 -97 -67 -128 -196 -474 -237 -634
-52 -202 -4 -393 126 -508 95 -83 189 -101 312 -58 131 45 248 146 303 261 52
109 46 181 -24 272 -66 86 -137 110 -197 66 -16 -13 -30 -19 -30 -14 0 5 35
92 77 193 66 158 77 192 77 244 1 109 -74 228 -177 279 -70 35 -117 34 -160
-4z m171 -75 c50 -54 46 -96 -32 -279 -134 -316 -168 -483 -105 -516 32 -18
81 5 154 71 72 65 104 74 129 37 40 -56 -2 -157 -109 -263 -82 -82 -161 -125
-246 -132 -111 -11 -208 65 -225 174 -4 25 -4 88 -1 142 4 80 14 121 55 247
82 245 169 448 224 527 40 56 100 53 156 -8z"/>
<path d="M23957 2920 c-19 -16 -50 -60 -70 -97 -67 -128 -196 -474 -237 -634
-52 -202 -4 -393 126 -508 95 -83 189 -101 312 -58 131 45 248 146 303 261 52
109 46 181 -24 272 -66 86 -137 110 -197 66 -16 -13 -30 -19 -30 -14 0 5 35
92 77 193 66 158 77 192 77 244 1 109 -74 228 -177 279 -70 35 -117 34 -160
-4z m171 -75 c50 -54 46 -96 -32 -279 -134 -316 -168 -483 -105 -516 32 -18
81 5 154 71 72 65 104 74 129 37 40 -56 -2 -157 -109 -263 -82 -82 -161 -125
-246 -132 -111 -11 -208 65 -225 174 -4 25 -4 88 -1 142 4 80 14 121 55 247
82 245 169 448 224 527 40 56 100 53 156 -8z"/>
</g>
</svg>
